<?xml version="1.0" encoding="utf-8"?>
<!-- Generator: Adobe Illustrator 22.1.0, SVG Export Plug-In . SVG Version: 6.00 Build 0)  -->
<svg version="1.1" id="Capa_1" xmlns="http://www.w3.org/2000/svg" xmlns:xlink="http://www.w3.org/1999/xlink" x="0px" y="0px"
	 viewBox="0 0 27.3 27.3" style="enable-background:new 0 0 27.3 27.3;" xml:space="preserve">
<style type="text/css">
	.st0{fill:#231F20;}
</style>
<g id="XMLID_6206_">
	<path id="XMLID_6212_" class="st0" d="M16.5,7.7c0.5,0,0.9-0.1,1.3-0.4c0.6-0.4,1-0.9,1.1-1.6c0.3-1.4-0.5-2.7-1.9-3
		c-0.7-0.2-1.3,0-1.9,0.3c-0.6,0.4-1,0.9-1.1,1.6c-0.2,0.7,0,1.3,0.3,1.9c0.4,0.6,0.9,1,1.6,1.1C16.1,7.7,16.3,7.7,16.5,7.7z
		 M15.8,4.1C16,4,16.2,3.9,16.4,3.9c0.1,0,0.2,0,0.3,0c0.7,0.2,1.1,0.9,1,1.6c-0.2,0.7-0.9,1.1-1.6,1c-0.3-0.1-0.6-0.3-0.8-0.6
		c-0.2-0.3-0.2-0.6-0.2-1C15.3,4.6,15.5,4.3,15.8,4.1z"/>
	<path id="XMLID_6207_" class="st0" d="M2.4,16.1l2.1,0.3c-0.4,4.4,2.5,8.6,6.9,9.7c0.7,0.2,1.4,0.3,2.1,0.3c3.7,0,7.1-2.3,8.5-5.8
		l2.1,0.7c0.1,0,0.1,0,0.2,0c0.2,0,0.4-0.1,0.5-0.2c0.2-0.2,0.2-0.5,0.1-0.7L23,17c-0.2-0.3-0.5-0.4-0.8-0.3l-3.4,1.8
		c-0.2,0.1-0.4,0.3-0.3,0.6c0,0.2,0.2,0.5,0.4,0.5l2,0.6c-1.2,3-4.1,4.9-7.2,4.9l3.7-15.4c1.8-0.3,3.3-1.7,3.8-3.6
		c0.6-2.5-1-5.1-3.5-5.7C16.3,0.3,15,0.5,14,1.2c-1.1,0.7-1.8,1.7-2.1,2.9c-0.4,1.9,0.3,3.8,1.8,4.9L9.9,24.3
		c-2.8-1.4-4.5-4.5-4.2-7.7l2,0.3c0,0,0.1,0,0.1,0c0.2,0,0.4-0.1,0.5-0.3c0.1-0.2,0.1-0.5,0-0.7l-2.3-3.1c-0.2-0.3-0.6-0.3-0.9-0.1
		L2.1,15c-0.2,0.1-0.3,0.4-0.2,0.6C1.9,15.9,2.1,16.1,2.4,16.1z M22.2,18.1l0.8,1.6L20.6,19L22.2,18.1z M14.9,8.9
		c0.1-0.3-0.1-0.5-0.3-0.7c-1.3-0.8-1.9-2.3-1.6-3.8c0.2-0.9,0.8-1.7,1.6-2.2c0.8-0.5,1.7-0.6,2.7-0.4c0.9,0.2,1.7,0.8,2.2,1.6
		c0.5,0.8,0.6,1.7,0.4,2.7c-0.4,1.5-1.6,2.6-3.1,2.7c-0.3,0-0.5,0.2-0.5,0.5l-3.8,15.8l-1.3-0.3L14.9,8.9z M5.5,14.1l1,1.4L4,15.2
		L5.5,14.1z"/>
</g>
</svg>
